# xmcd
# 
# Track frame offsets:
#     187
#     23975
#     44212
#     68062
#     90137
#     110950
#     130375
#     147787
#     159262
#     178275
# 
# Disc length: 2657
# 
# Revision: 1
# Processed by: cddbd v1.5.2PL0 Copyright (c) Steve Scherf et al.
# Submitted via: BonkEnc v1.0.8
# 
DISCID=8d0a5f0a
DTITLE=瀬木貴将 - ルナ～星の旅
DYEAR=1997
DGENRE=New Age
TTITLE0=リトル・ドリーマー
TTITLE1=南へ
TTITLE2=サラール
TTITLE3=哀愁のヨーロッパ
TTITLE4=ジプシー
TTITLE5=ポシーブレ
TTITLE6=奇想天外
TTITLE7=スピリッツ
TTITLE8=月の谷
TTITLE9=雪の原
EXTD=YEAR: 1997
EXTT0=
EXTT1=
EXTT2=
EXTT3=
EXTT4=
EXTT5=
EXTT6=
EXTT7=
EXTT8=
EXTT9=
PLAYORDER=
